# xmcd CD database file
#
# Track frame offsets:
#	150
#	6406
#	18438
#	43965
#	58578
#	74268
#	82668
#	104668
#	118018
#	152580
#	176130
#
# Disc length: 2558 seconds
#
# Revision: 1
# Processed by: cddbd v1.5.1PL2 Copyright (c) Steve Scherf et al.
# Submitted via: CDex 1.51
#
DISCID=8f09fc0b
DTITLE=イオシス - ヨドバCD
DYEAR=2002
DGENRE=Other
TTITLE0=The Best On The Hot Tin Roof
TTITLE1=ドン・キホーテのテーマ
TTITLE2=黄門様、ヨドバシカメラに行く
TTITLE3=Fの世界
TTITLE4=ドン・キホーテでどどんがどん
TTITLE5=サトームセンのアレ
TTITLE6=Love Love Menu♪
TTITLE7=超高級家電量販店ヤマダ
TTITLE8=Universal Bathroom
TTITLE9=カメラ対キャメラ
TTITLE10=生協の宴
EXTD=YEAR: 2002
EXTT0=
EXTT1=
EXTT2=
EXTT3=
EXTT4=
EXTT5=
EXTT6=
EXTT7=
EXTT8=
EXTT9=
EXTT10=
PLAYORDER=
